<svg width="10" height="6" viewBox="0 0 10 6" fill="none" xmlns="http://www.w3.org/2000/svg">
<path d="M9.76572 0.857142C9.76572 0.928571 9.73 1.00893 9.67643 1.0625L5.51571 5.22321C5.46214 5.27679 5.38179 5.3125 5.31036 5.3125C5.23893 5.3125 5.15857 5.27679 5.105 5.22321L0.944286 1.0625C0.890714 1.00893 0.855 0.928571 0.855 0.857142C0.855 0.785714 0.890714 0.705357 0.944286 0.651785L1.39071 0.205357C1.44429 0.151785 1.51571 0.116071 1.59607 0.116071C1.6675 0.116071 1.74786 0.151785 1.80143 0.205357L5.31036 3.71429L8.81929 0.205357C8.87286 0.151785 8.95322 0.116071 9.02464 0.116071C9.09607 0.116071 9.17643 0.151785 9.23 0.205357L9.67643 0.651785C9.73 0.705357 9.76572 0.785714 9.76572 0.857142Z" fill="#444444"/>
</svg>
