<svg width="10" height="6" viewBox="0 0 10 6" fill="none" xmlns="http://www.w3.org/2000/svg">
<path d="M9.67643 0.651785C9.73595 0.711309 9.76572 0.779762 9.76572 0.857142C9.76572 0.934524 9.73595 1.00298 9.67643 1.0625L5.51571 5.22321C5.45619 5.28274 5.38774 5.3125 5.31036 5.3125C5.23298 5.3125 5.16452 5.28274 5.105 5.22321L0.944286 1.0625C0.884762 1.00298 0.855 0.934524 0.855 0.857142C0.855 0.779762 0.884762 0.711309 0.944286 0.651785L1.39071 0.205357C1.45024 0.145833 1.51869 0.116071 1.59607 0.116071C1.67345 0.116071 1.7419 0.145833 1.80143 0.205357L5.31036 3.71429L8.81929 0.205357C8.87881 0.145833 8.94726 0.116071 9.02464 0.116071C9.10202 0.116071 9.17048 0.145833 9.23 0.205357L9.67643 0.651785Z" fill="#0568C3"/>
</svg>
